# xmcd
#
# Track frame offsets:
#	183
#	11768
#	26240
#	39745
#	52408
#	63880
#	75558
# Disc length: 1168 seconds
# Revision: 1
# Processed by: cddbd v1.5.2PL0 Copyright (c) Steve Scherf et al.
#
# Submitted via: libkcddb 0.31
#
DISCID=5b048e07
DTITLE=Divers - Espace Rhythm and Blues
DYEAR=1900
DGENRE=R&B
TTITLE0=John Lee Hooker - Boom Boom
TTITLE1=Fats Domino - Blueberry Hill
TTITLE2=Eddie Floyd - Knock on Wood
TTITLE3=Etta James - Security
TTITLE4=Sam and Dave - Soul Man
TTITLE5=Percy Sledge - Dock of the Bay
TTITLE6=Joe Tex - I Gotcha
EXTD=
EXTT0=
EXTT1=
EXTT2=
EXTT3=
EXTT4=
EXTT5=
EXTT6=
PLAYORDER=
